<svg xmlns="http://www.w3.org/2000/svg" x="0px" y="0px"
width="24" height="24"
viewBox="0 0 172 172"
style=" fill:#000000;"><g fill="none" fill-rule="nonzero" stroke="none" stroke-width="1" stroke-linecap="butt" stroke-linejoin="miter" stroke-miterlimit="10" stroke-dasharray="" stroke-dashoffset="0" font-family="none" font-weight="none" font-size="none" text-anchor="none" style="mix-blend-mode: normal"><path d="M0,172v-172h172v172z" fill="none"></path><g id="original-icon" fill="#e74c3c"><path d="M73.90625,-0.22396c-12.3457,0 -22.5638,9.6582 -23.73958,21.72396h-35.83333v14.33333h35.60938v0.22396h72.11458v-0.22396h35.60938v-14.33333h-35.83333c-1.11979,-12.06576 -10.86198,-21.72396 -22.84375,-21.72396zM73.90625,14.55729h25.08333c3.63933,0 6.32683,2.85547 7.39063,6.71875h-40.76042c1.00781,-3.86328 3.80729,-6.71875 8.28646,-6.71875zM28.66667,43v118.25c0,5.73893 5.01107,10.75 10.75,10.75h93.83854c5.73893,0 10.75,-5.01107 10.75,-10.75v-118.25zM50.16667,64.5h7.16667v93.16667h-7.16667zM71.66667,64.5h7.16667v93.16667h-7.16667zM93.16667,64.5h7.16667v93.16667h-7.16667zM114.66667,64.5h7.16667v93.16667h-7.16667z"></path></g></g></svg>